<svg width="1024" height="1024" viewBox="0 0 174 139" preserveAspectRatio="xMidYMid meet" xmlns="http://www.w3.org/2000/svg">
<path d="M10 110.37C10.2051 109.901 10.4563 109.586 10.608 109.231C11.8354 106.362 13.5915 103.924 16.2383 102.034C20.0403 99.3183 23.7075 96.4296 27.4536 93.6413C32.236 90.0817 37.0554 86.5676 41.8301 82.9986C47.0366 79.1069 52.2087 75.1728 57.3999 71.2622C58.2049 70.6557 59.1146 70.1542 59.8256 69.462C60.5812 68.7264 61.0859 68.8998 61.6372 69.5945C64.5632 73.2815 67.4888 76.9689 70.4964 80.7593C55.7672 91.7377 41.0164 102.732 25.9868 113.934C66.8089 113.934 107.221 113.934 147.969 113.934C145.793 112.307 143.865 110.834 141.904 109.403C137.443 106.147 132.963 102.914 128.495 99.6656C124.217 96.5564 119.943 93.4431 115.672 90.3261C109.888 86.1048 104.114 81.8708 98.325 77.6562C93.2752 73.98 88.181 70.3593 83.1607 66.6466C78.9391 63.5244 74.5939 60.5162 70.6742 57.0695C66.7258 53.5975 64.5621 49.0385 63.4975 43.9413C62.553 39.4193 62.6847 34.8553 63.0512 30.3837C63.832 20.8569 70.8388 12.9177 80.8454 10.6662C88.2077 9.00959 94.9833 10.4484 100.833 14.9178C105.562 18.5309 108.735 23.2926 109.225 29.239C109.51 32.693 109.277 36.1864 109.277 39.7386C104.357 39.7386 99.2218 39.7386 93.9333 39.7386C93.9333 37.4407 94.0175 35.146 93.9156 32.8589C93.7079 28.1973 90.7697 25.1949 86.0718 25.1453C82.6067 25.1088 79.298 27.6756 78.8899 31.1342C78.4666 34.7222 78.2733 38.2909 79.1663 41.8615C79.8849 44.7346 81.8128 46.7041 84.1312 48.4062C89.049 52.0167 93.9963 55.5902 98.9314 59.1789C103.518 62.5142 108.103 65.8524 112.692 69.1841C117.163 72.4293 121.635 75.6728 126.113 78.9081C130.083 81.7764 134.083 84.6074 138.034 87.4999C143.352 91.3934 148.644 95.3198 153.93 99.2537C155.98 100.779 158.084 102.259 159.979 103.949C162.177 105.909 163.28 108.499 163.914 111.352C164.028 113.319 164.028 115.25 163.917 117.349C163.645 118.051 163.512 118.593 163.32 119.116C161.194 124.905 155.39 129.002 148.823 129C107.982 128.99 67.1403 128.998 26.299 128.983C24.9738 128.982 23.6217 128.932 22.3284 128.683C17.8603 127.825 14.3685 125.577 12.1025 121.716C11.386 120.495 10.7 119.257 10 118.027C10 115.52 10 113.013 10 110.37Z" fill="#F4B5A4"/>
</svg>
